<svg width="24" height="24" viewBox="0 0 24 24" fill="none" xmlns="http://www.w3.org/2000/svg">
<circle cx="12" cy="12" r="12" fill="#353535"/>
<path d="M4.78782 3.28646C4.95636 3.45521 5.05103 3.68397 5.05103 3.92247C5.05103 4.16098 4.95636 4.38973 4.78782 4.55849C3.84061 5.50567 3.08923 6.63016 2.5766 7.86773C2.06397 9.1053 1.80012 10.4317 1.80012 11.7713C1.80012 13.1108 2.06397 14.4372 2.5766 15.6748C3.08923 16.9124 3.84061 18.0369 4.78782 18.9841C4.95169 19.1539 5.0423 19.3813 5.04014 19.6172C5.03798 19.8532 4.94322 20.0789 4.77627 20.2457C4.60931 20.4125 4.38353 20.5071 4.14755 20.509C3.91156 20.5109 3.68426 20.4201 3.51459 20.2561C-1.17153 15.57 -1.17153 7.97257 3.51459 3.28646C3.68334 3.11791 3.9121 3.02324 4.1506 3.02324C4.38911 3.02324 4.61787 3.11791 4.78662 3.28646H4.78782ZM20.4854 3.28646C25.1715 7.97257 25.1715 15.57 20.4854 20.2573C20.3148 20.4163 20.0891 20.5028 19.856 20.4987C19.6228 20.4946 19.4003 20.4001 19.2354 20.2352C19.0705 20.0703 18.9761 19.8479 18.972 19.6147C18.9679 19.3815 19.0544 19.1559 19.2134 18.9853C20.1608 18.038 20.9123 16.9135 21.425 15.6758C21.9378 14.4381 22.2017 13.1116 22.2017 11.7719C22.2017 10.4322 21.9378 9.10562 21.425 7.86794C20.9123 6.63025 20.1608 5.5057 19.2134 4.55849C19.125 4.47609 19.054 4.37673 19.0048 4.26633C18.9556 4.15593 18.9292 4.03675 18.9271 3.9159C18.9249 3.79505 18.9472 3.67502 18.9924 3.56295C19.0377 3.45088 19.1051 3.34908 19.1905 3.26361C19.276 3.17815 19.3778 3.11077 19.4899 3.0655C19.6019 3.02024 19.722 2.99801 19.8428 3.00014C19.9637 3.00227 20.0828 3.02872 20.1933 3.07791C20.3037 3.12711 20.403 3.19803 20.4854 3.28646ZM8.18151 6.68014C8.35005 6.8489 8.44472 7.07765 8.44472 7.31616C8.44472 7.55467 8.35005 7.78342 8.18151 7.95218C7.67987 8.45365 7.28194 9.04903 7.01045 9.70432C6.73896 10.3596 6.59922 11.062 6.59922 11.7713C6.59922 12.4806 6.73896 13.1829 7.01045 13.8382C7.28194 14.4935 7.67987 15.0889 8.18151 15.5904C8.34049 15.761 8.42703 15.9866 8.42292 16.2198C8.41881 16.453 8.32435 16.6754 8.15945 16.8403C7.99455 17.0052 7.77208 17.0997 7.53892 17.1038C7.30575 17.1079 7.08009 17.0214 6.90947 16.8624C5.55928 15.5121 4.80076 13.6808 4.80076 11.7713C4.80076 9.86175 5.55928 8.03042 6.90947 6.68014C7.07823 6.5116 7.30698 6.41693 7.54549 6.41693C7.784 6.41693 8.01275 6.5116 8.18151 6.68014ZM17.0917 6.68014C18.4419 8.03042 19.2004 9.86175 19.2004 11.7713C19.2004 13.6808 18.4419 15.5121 17.0917 16.8624C17.0087 16.9484 16.9095 17.017 16.7997 17.0642C16.6899 17.1114 16.5718 17.1363 16.4523 17.1374C16.3328 17.1385 16.2143 17.1158 16.1036 17.0706C15.993 17.0254 15.8925 16.9586 15.808 16.8742C15.7234 16.7897 15.6565 16.6892 15.6112 16.5786C15.5659 16.4681 15.5431 16.3496 15.5441 16.2301C15.5451 16.1105 15.5698 15.9924 15.6169 15.8826C15.6641 15.7728 15.7326 15.6734 15.8185 15.5904C16.32 15.0889 16.7177 14.4936 16.9891 13.8384C17.2605 13.1832 17.4002 12.481 17.4002 11.7719C17.4002 11.0627 17.2605 10.3605 16.9891 9.70531C16.7177 9.05013 16.32 8.45482 15.8185 7.95337C15.6595 7.78276 15.573 7.5571 15.5771 7.32393C15.5812 7.09076 15.6757 6.8683 15.8406 6.7034C16.0055 6.5385 16.2279 6.44404 16.4611 6.43993C16.6943 6.43581 16.9199 6.52236 17.0905 6.68134L17.0917 6.68014ZM12 9.97183C12.4774 9.97183 12.9353 10.1615 13.2728 10.499C13.6104 10.8366 13.8 11.2945 13.8 11.7719C13.8 12.2493 13.6104 12.7071 13.2728 13.0447C12.9353 13.3823 12.4774 13.5719 12 13.5719C11.5226 13.5719 11.0648 13.3823 10.7272 13.0447C10.3896 12.7071 10.2 12.2493 10.2 11.7719C10.2 11.2945 10.3896 10.8366 10.7272 10.499C11.0648 10.1615 11.5226 9.97183 12 9.97183Z" fill="#F4F4F4"/>
</svg>
