<svg width="32" height="32" viewBox="0 0 32 32" fill="none" xmlns="http://www.w3.org/2000/svg">
<path fill-rule="evenodd" clip-rule="evenodd" d="M16 30.4C23.9528 30.4 30.4 23.9528 30.4 16C30.4 8.0472 23.9528 1.6 16 1.6C8.0472 1.6 1.6 8.0472 1.6 16C1.6 23.9528 8.0472 30.4 16 30.4ZM16 32C24.8368 32 32 24.8368 32 16C32 7.1632 24.8368 0 16 0C7.1632 0 0 7.1632 0 16C0 24.8368 7.1632 32 16 32Z" fill="#353535"/>
<path d="M6.40039 25.304C6.40039 24.4776 7.01799 23.7792 7.84039 23.688C14.0124 23.0048 18.0164 23.0664 24.1748 23.7032C24.4823 23.7355 24.7738 23.8567 25.0136 24.0519C25.2534 24.2471 25.4312 24.5079 25.5252 24.8025C25.6192 25.0971 25.6254 25.4127 25.543 25.7107C25.4606 26.0088 25.2932 26.2764 25.0612 26.4808C17.7932 32.816 13.6396 32.7288 6.91239 26.4872C6.58439 26.1832 6.40039 25.7512 6.40039 25.3048V25.304Z" fill="#353535"/>
<path fill-rule="evenodd" clip-rule="evenodd" d="M24.0916 24.4984C17.982 23.8664 14.0356 23.8072 7.92681 24.4832C7.72573 24.5066 7.54035 24.6034 7.40617 24.755C7.272 24.9066 7.19845 25.1024 7.19961 25.3048C7.19961 25.5336 7.29481 25.7504 7.45561 25.9008C10.79 28.9936 13.3164 30.3912 15.786 30.4C18.2644 30.4088 20.9268 29.0224 24.5348 25.8784C24.6494 25.7764 24.732 25.6433 24.7723 25.4952C24.8127 25.3472 24.8092 25.1906 24.7623 25.0445C24.7153 24.8984 24.627 24.7691 24.5079 24.6723C24.3888 24.5755 24.2442 24.5153 24.0916 24.4992V24.4984ZM7.75161 22.8928C13.9884 22.2024 18.0508 22.2648 24.2572 22.9072C24.7199 22.9555 25.1584 23.1376 25.5191 23.4313C25.8798 23.725 26.1471 24.1175 26.2882 24.5607C26.4293 25.0039 26.4381 25.4787 26.3135 25.9269C26.1889 26.375 25.9364 26.7771 25.5868 27.084C21.9268 30.2744 18.8788 32.012 15.7812 32C12.6748 31.9888 9.76121 30.2216 6.36841 27.0736C6.1255 26.8473 5.93185 26.5734 5.79957 26.2689C5.66729 25.9645 5.59922 25.636 5.59961 25.304C5.59845 24.7075 5.81738 24.1316 6.21447 23.6866C6.61155 23.2415 7.15888 22.9586 7.75161 22.892V22.8928Z" fill="#353535"/>
<path d="M22.3996 12.8C22.3996 14.4974 21.7253 16.1252 20.5251 17.3255C19.3249 18.5257 17.697 19.2 15.9996 19.2C14.3022 19.2 12.6744 18.5257 11.4741 17.3255C10.2739 16.1252 9.59961 14.4974 9.59961 12.8C9.59961 11.1026 10.2739 9.47474 11.4741 8.27451C12.6744 7.07428 14.3022 6.39999 15.9996 6.39999C17.697 6.39999 19.3249 7.07428 20.5251 8.27451C21.7253 9.47474 22.3996 11.1026 22.3996 12.8Z" fill="#353535"/>
<path fill-rule="evenodd" clip-rule="evenodd" d="M15.9996 17.6C17.2726 17.6 18.4935 17.0943 19.3937 16.1941C20.2939 15.2939 20.7996 14.073 20.7996 12.8C20.7996 11.527 20.2939 10.3061 19.3937 9.40588C18.4935 8.50571 17.2726 7.99999 15.9996 7.99999C14.7266 7.99999 13.5057 8.50571 12.6055 9.40588C11.7053 10.3061 11.1996 11.527 11.1996 12.8C11.1996 14.073 11.7053 15.2939 12.6055 16.1941C13.5057 17.0943 14.7266 17.6 15.9996 17.6ZM15.9996 19.2C17.697 19.2 19.3249 18.5257 20.5251 17.3255C21.7253 16.1252 22.3996 14.4974 22.3996 12.8C22.3996 11.1026 21.7253 9.47474 20.5251 8.27451C19.3249 7.07428 17.697 6.39999 15.9996 6.39999C14.3022 6.39999 12.6744 7.07428 11.4741 8.27451C10.2739 9.47474 9.59961 11.1026 9.59961 12.8C9.59961 14.4974 10.2739 16.1252 11.4741 17.3255C12.6744 18.5257 14.3022 19.2 15.9996 19.2Z" fill="#353535"/>
</svg>
