<svg width="32" height="32" viewBox="0 0 32 32" fill="none" xmlns="http://www.w3.org/2000/svg">
<path d="M20.6714 19.0813C22.78 19.0813 24.8022 19.9189 26.2932 21.4099C27.7842 22.9009 28.6219 24.9232 28.6219 27.0318V28.6219C28.6219 29.4653 28.2868 30.2742 27.6904 30.8706C27.094 31.467 26.2851 31.8021 25.4417 31.8021H3.18021C2.33677 31.8021 1.52787 31.467 0.931462 30.8706C0.335057 30.2742 0 29.4653 0 28.6219V27.0318C0 24.9232 0.837642 22.9009 2.32866 21.4099C3.81967 19.9189 5.84191 19.0813 7.95053 19.0813H20.6714ZM29.2802 11.2595C29.5657 10.9713 29.9505 10.8031 30.356 10.7894C30.7614 10.7756 31.1568 10.9173 31.4612 11.1855C31.7655 11.4537 31.9559 11.8281 31.9932 12.2321C32.0306 12.636 31.9122 13.039 31.6622 13.3585L31.5286 13.5095L27.0318 18.0063C26.758 18.2801 26.3937 18.4446 26.0072 18.4689C25.6208 18.4932 25.2388 18.3757 24.9328 18.1383L24.7834 18.0063L22.535 15.7579C22.2468 15.4725 22.0786 15.0876 22.0648 14.6822C22.051 14.2767 22.1928 13.8814 22.461 13.577C22.7292 13.2726 23.1036 13.0823 23.5075 13.0449C23.9115 13.0075 24.3144 13.126 24.6339 13.376L24.7834 13.5095L25.9076 14.6337L29.2802 11.2595ZM14.3109 0C16.4196 0 18.4418 0.837642 19.9328 2.32865C21.4238 3.81967 22.2615 5.84191 22.2615 7.95052C22.2615 10.0591 21.4238 12.0814 19.9328 13.5724C18.4418 15.0634 16.4196 15.901 14.3109 15.901C12.2023 15.901 10.1801 15.0634 8.68908 13.5724C7.19806 12.0814 6.36042 10.0591 6.36042 7.95052C6.36042 5.84191 7.19806 3.81967 8.68908 2.32865C10.1801 0.837642 12.2023 0 14.3109 0Z" fill="#353535"/>
</svg>
