<svg width="32" height="28" viewBox="0 0 32 28" fill="none" xmlns="http://www.w3.org/2000/svg">
<path d="M28.8 0H3.2C1.44 0 0 1.44 0 3.2V24C0 25.76 1.44 27.2 3.2 27.2H7.2V26.16C6.72 25.92 6.4 25.36 6.4 24.8C6.4 23.92 7.12 23.2 8 23.2C8.88 23.2 9.6 23.92 9.6 24.8C9.6 25.36 9.28 25.92 8.8 26.16V27.2H23.2V26.16C22.72 25.92 22.4 25.36 22.4 24.8C22.4 23.92 23.12 23.2 24 23.2C24.88 23.2 25.6 23.92 25.6 24.8C25.6 25.36 25.28 25.92 24.8 26.16V27.2H28.8C30.56 27.2 32 25.76 32 24V3.2C32 1.44 30.56 0 28.8 0Z" fill="#353535"/>
<path d="M16.0008 12C17.7681 12 19.2008 10.5673 19.2008 8.79999C19.2008 7.03268 17.7681 5.59999 16.0008 5.59999C14.2335 5.59999 12.8008 7.03268 12.8008 8.79999C12.8008 10.5673 14.2335 12 16.0008 12Z" fill="white"/>
<path d="M21.6004 16.8C21.6004 16.8 20.0804 13.6 16.0004 13.6C11.9204 13.6 10.4004 16.8 10.4004 16.8V18.4H21.6004V16.8Z" fill="white"/>
</svg>
