<svg width="48" height="48" viewBox="0 0 48 48" fill="none" xmlns="http://www.w3.org/2000/svg">
<circle cx="24" cy="24" r="24" fill="white"/>
<path d="M39.7701 8C39.515 8.00539 39.2678 8.08919 39.0621 8.24C38.9021 8.4 38.7401 8.632 38.7401 8.866C38.7401 9.266 39.2121 9.814 40.0861 10.712C43.7301 14.22 45.5621 18.518 45.5501 23.7C45.5361 29.434 43.6101 34.04 39.8621 37.608C39.0741 38.314 38.7501 38.868 38.7481 39.342C38.7481 39.574 38.9081 39.816 39.0681 40.048C39.2592 40.2339 39.5085 40.3483 39.7741 40.372C40.6421 40.372 41.8541 39.348 43.4401 37.354C46.5241 33.574 47.9201 29.398 47.9981 23.706C48.0701 18.012 46.2841 14.152 42.7921 10.166C41.5321 8.742 40.4861 8.002 39.7701 8V8ZM8.23209 8.004C7.51609 8.004 6.46809 8.744 5.21209 10.17C1.71609 14.156 -0.0699063 18.016 0.00209365 23.71C0.0820936 29.402 1.47609 33.576 4.56209 37.358C6.14409 39.352 7.35809 40.378 8.22609 40.376C8.49126 40.353 8.74017 40.2385 8.93009 40.052C9.09009 39.82 9.25009 39.578 9.25009 39.346C9.25009 38.872 8.92609 38.318 8.13809 37.614C4.39209 34.044 2.46409 29.44 2.45009 23.704C2.43809 18.522 4.27009 14.224 7.91409 10.716C8.78809 9.818 9.26209 9.272 9.26009 8.87C9.26009 8.636 9.10009 8.404 8.93809 8.244C8.73234 8.09319 8.48514 8.00939 8.23009 8.004H8.23209ZM22.3441 9.794C22.3441 9.794 23.6541 13.956 17.0461 23.248C10.7341 32.114 19.1361 37.548 19.9101 38.02C19.3481 37.66 15.9081 35.02 20.7141 27.174C21.6461 25.634 22.8661 24.234 24.3821 21.092C24.3821 21.092 25.7221 22.984 25.0221 27.088C23.9761 33.29 29.5641 31.516 29.6501 31.602C31.6021 33.902 28.0341 37.942 27.8161 38.068C27.6001 38.19 38.0081 31.808 30.6141 22.198C30.1081 22.704 29.4501 25.082 28.0801 24.73C26.7121 24.382 32.3301 17.742 22.3441 9.794V9.794ZM19.9101 38.02C19.9561 38.052 19.9861 38.068 19.9861 38.068L19.9101 38.02Z" fill="black"/>
</svg>
