<svg width="48" height="48" viewBox="0 0 48 48" fill="none" xmlns="http://www.w3.org/2000/svg">
<circle cx="24" cy="24" r="24" fill="white"/>
<path fill-rule="evenodd" clip-rule="evenodd" d="M24 48C37.2548 48 48 37.2548 48 24C48 10.7452 37.2548 0 24 0C10.7452 0 0 10.7452 0 24C0 37.2548 10.7452 48 24 48ZM19.3283 24.4998C19.3283 22.2045 21.2014 20.3314 23.4966 20.3314C25.7919 20.3314 27.665 22.2045 27.665 24.4998C27.665 26.795 25.7919 28.6681 23.4966 28.6681C21.2014 28.6681 19.3283 26.795 19.3283 24.4998ZM35.9991 23.8683C35.9988 24.0786 35.9986 24.2891 35.9986 24.4998C35.9986 24.7354 35.999 24.9707 35.9993 25.2058C36.0015 26.6931 36.0037 28.1716 35.9173 29.6594C35.8204 31.6607 35.3669 33.4338 33.9004 34.9003C32.4369 36.3638 30.6607 36.8204 28.6594 36.9173C27.1467 37.0024 25.6436 37.0007 24.1311 36.9991C23.9209 36.9988 23.7104 36.9986 23.4998 36.9986C23.2895 36.9986 23.0795 36.9988 22.8696 36.9991C21.3591 37.0007 19.8556 37.0024 18.3401 36.9173C16.3388 36.8204 14.5658 36.3669 13.0992 34.9003C11.6357 33.4369 11.1792 31.6607 11.0822 29.6594C10.9971 28.1466 10.9988 26.6411 11.0005 25.1301C11.0007 24.9201 11.0009 24.71 11.0009 24.4998C11.0009 24.2895 11.0007 24.0794 11.0005 23.8695C10.9988 22.3591 10.9971 20.8556 11.0822 19.3401C11.1792 17.3388 11.6326 15.5658 13.0992 14.0992C14.5626 12.6357 16.3388 12.1792 18.3401 12.0822C19.8528 11.9971 21.3559 11.9988 22.8684 12.0005C23.0786 12.0007 23.2891 12.0009 23.4998 12.0009C23.71 12.0009 23.9201 12.0007 24.13 12.0005C25.6405 11.9988 27.1439 11.9971 28.6594 12.0822C30.6607 12.1792 32.4338 12.6326 33.9004 14.0992C35.3638 15.5626 35.8204 17.3388 35.9173 19.3401C36.0024 20.8528 36.0007 22.3559 35.9991 23.8683ZM17.0831 24.4998C17.0831 28.049 19.9474 30.9134 23.4966 30.9134C27.0458 30.9134 29.9102 28.049 29.9102 24.4998C29.9102 20.9506 27.0458 18.0862 23.4966 18.0862C19.9474 18.0862 17.0831 20.9506 17.0831 24.4998ZM28.675 17.8235C28.675 18.6522 29.3442 19.3214 30.1729 19.3214C30.3697 19.3216 30.5646 19.283 30.7464 19.2078C30.9282 19.1327 31.0935 19.0223 31.2326 18.8832C31.3717 18.7441 31.4821 18.5788 31.5572 18.397C31.6324 18.2152 31.671 18.0203 31.6708 17.8235C31.6708 16.9948 31.0016 16.3256 30.1729 16.3256C29.3442 16.3256 28.675 16.9948 28.675 17.8235Z" fill="black"/>
</svg>
