<svg width="24" height="28" viewBox="0 0 24 28" fill="none" xmlns="http://www.w3.org/2000/svg">
<path d="M12.636 0.326559C12.7366 0.223212 12.8569 0.141071 12.9898 0.0849836C13.1227 0.0288964 13.2654 0 13.4097 0C13.5539 0 13.6967 0.0288964 13.8296 0.0849836C13.9625 0.141071 14.0828 0.223212 14.1834 0.326559C14.3897 0.538391 14.5052 0.8224 14.5052 1.11809C14.5052 1.41379 14.3897 1.6978 14.1834 1.90963L2.61776 13.772L14.1834 25.6367C14.2875 25.7433 14.3696 25.8693 14.425 26.0076C14.4804 26.146 14.508 26.2938 14.5063 26.4428C14.5045 26.5918 14.4734 26.739 14.4147 26.876C14.3561 27.0129 14.271 27.137 14.1644 27.2411C14.0629 27.3403 13.9428 27.4186 13.811 27.4713C13.6791 27.5241 13.5382 27.5503 13.3963 27.5486C13.2543 27.5468 13.1141 27.5171 12.9836 27.4611C12.8531 27.405 12.735 27.3238 12.636 27.2221L0.336909 14.6003C0.120895 14.3787 0 14.0814 0 13.772C0 13.4625 0.120895 13.1653 0.336909 12.9436L12.636 0.326559ZM22.1296 0.326559C22.2302 0.223212 22.3506 0.141071 22.4834 0.0849836C22.6163 0.0288964 22.7591 0 22.9034 0C23.0476 0 23.1904 0.0288964 23.3233 0.0849836C23.4562 0.141071 23.5765 0.223212 23.6771 0.326559C23.8834 0.538391 23.9988 0.8224 23.9988 1.11809C23.9988 1.41379 23.8834 1.6978 23.6771 1.90963L12.1114 13.772L23.6771 25.6367C23.7812 25.7433 23.8633 25.8693 23.9187 26.0076C23.9741 26.146 24.0017 26.2938 23.9999 26.4428C23.9982 26.5918 23.9671 26.739 23.9084 26.876C23.8498 27.0129 23.7647 27.137 23.6581 27.2411C23.5566 27.3403 23.4364 27.4186 23.3046 27.4713C23.1728 27.5241 23.0319 27.5503 22.8899 27.5486C22.748 27.5468 22.6077 27.5171 22.4773 27.4611C22.3468 27.405 22.2287 27.3238 22.1296 27.2221L9.83058 14.6003C9.61456 14.3787 9.49367 14.0814 9.49367 13.772C9.49367 13.4625 9.61456 13.1653 9.83058 12.9436L22.1296 0.326559Z" fill="black"/>
</svg>
