<svg width="32" height="36" viewBox="0 0 32 36" fill="none" xmlns="http://www.w3.org/2000/svg">
<path d="M28.4444 3.55592H21.0133C20.6493 2.5167 19.9713 1.61628 19.0732 0.979237C18.175 0.342192 17.1011 0 16 0C14.8989 0 13.825 0.342192 12.9268 0.979237C12.0287 1.61628 11.3507 2.5167 10.9867 3.55592H3.55556C2.61343 3.55873 1.71069 3.93423 1.04451 4.60042C0.378319 5.26661 0.00281374 6.16934 0 7.11147V32.0004C0.00281374 32.9425 0.378319 33.8452 1.04451 34.5114C1.71069 35.1776 2.61343 35.5531 3.55556 35.5559H28.4444C29.3866 35.5531 30.2893 35.1776 30.9555 34.5114C31.6217 33.8452 31.9972 32.9425 32 32.0004V7.11147C31.9972 6.16934 31.6217 5.26661 30.9555 4.60042C30.2893 3.93423 29.3866 3.55873 28.4444 3.55592ZM16 3.55592C16.3516 3.55592 16.6953 3.66018 16.9877 3.85553C17.28 4.05087 17.5079 4.32852 17.6425 4.65337C17.777 4.97821 17.8122 5.33567 17.7436 5.68052C17.675 6.02538 17.5057 6.34214 17.2571 6.59077C17.0085 6.8394 16.6917 7.00872 16.3468 7.07731C16.002 7.14591 15.6445 7.1107 15.3197 6.97615C14.9948 6.84159 14.7172 6.61373 14.5218 6.32137C14.3265 6.02902 14.2222 5.6853 14.2222 5.33369C14.2236 4.86263 14.4114 4.41126 14.7445 4.07817C15.0776 3.74508 15.5289 3.55732 16 3.55592ZM12.4444 12.4448L17.4044 17.4119L21.8844 12.9319L19.5556 10.667H26.6667V17.7781L24.3982 15.4475L17.408 22.443L12.4444 17.4759L7.84711 22.0697L5.33333 19.5559L12.4444 12.4448ZM28.4444 30.2226H3.55556V26.667H28.4444V30.2226Z" fill="#353535"/>
</svg>
