<svg width="32" height="27" viewBox="0 0 32 27" fill="none" xmlns="http://www.w3.org/2000/svg">
<path d="M30.72 4.576H16.36L11.668 0.0879999C11.6083 0.032111 11.5298 0.000701186 11.448 0H1.28C0.572 0 0 0.572 0 1.28V24.96C0 25.668 0.572 26.24 1.28 26.24H30.72C31.428 26.24 32 25.668 32 24.96V5.856C32 5.148 31.428 4.576 30.72 4.576ZM20.8 15.72C20.8 15.872 20.664 16 20.5 16H17.12V19.396C17.12 19.552 16.992 19.68 16.84 19.68H15.16C15.008 19.68 14.88 19.552 14.88 19.396V16H11.5C11.336 16 11.2 15.872 11.2 15.72V14.04C11.2 13.888 11.336 13.76 11.5 13.76H14.88V10.364C14.88 10.208 15.008 10.08 15.16 10.08H16.84C16.992 10.08 17.12 10.208 17.12 10.364V13.76H20.5C20.664 13.76 20.8 13.888 20.8 14.04V15.72Z" fill="#353535"/>
</svg>
